# xmcd
#
# Track frame offsets:
#	150
#	13988
#	28657
#	46775
#
# Disc length: 771 seconds
#
# Revision: 0
# Processed by: cddbd v1.5.2PL0 Copyright (c) Steve Scherf et al.
# Submitted via: audiograbber 1.83.01
#
DISCID=29030104
DTITLE=Nikki Hornsby - Reaching Out
DYEAR=2000
DGENRE=Blues
TTITLE0=The Power of The Lord
TTITLE1=This River Bends
TTITLE2=My God Is Your God
TTITLE3=Draw The Line
EXTD=
EXTT0=
EXTT1=
EXTT2=
EXTT3=
PLAYORDER=
